<svg width="16" height="16" viewBox="0 0 16 16" fill="none" xmlns="http://www.w3.org/2000/svg">
<path d="M10.4602 12.5405L10.4602 12.5405L5.91941 8.00028L10.4602 3.4601L10.4602 3.46009C10.5822 3.33814 10.6507 3.17274 10.6507 3.00028C10.6507 2.82781 10.5822 2.66241 10.4602 2.54046C10.3383 2.41851 10.1729 2.35 10.0004 2.35C9.82793 2.35 9.66253 2.41851 9.54058 2.54046L4.54064 7.5404C4.54062 7.54042 4.5406 7.54044 4.54058 7.54046C4.48017 7.60082 4.43225 7.67248 4.39955 7.75137C4.36684 7.83028 4.35 7.91486 4.35 8.00028C4.35 8.0857 4.36684 8.17028 4.39955 8.24919C4.43225 8.32807 4.48017 8.39974 4.54058 8.46009C4.5406 8.46011 4.54062 8.46013 4.54064 8.46015L9.54058 13.4601C9.60096 13.5205 9.67265 13.5684 9.75154 13.6011C9.83044 13.6337 9.915 13.6506 10.0004 13.6506C10.0858 13.6506 10.1703 13.6337 10.2492 13.6011C10.3281 13.5684 10.3998 13.5205 10.4602 13.4601C10.5206 13.3997 10.5685 13.328 10.6012 13.2491C10.6339 13.1702 10.6507 13.0857 10.6507 13.0003C10.6507 12.9149 10.6339 12.8303 10.6012 12.7514C10.5685 12.6725 10.5206 12.6008 10.4602 12.5405Z" fill="black" stroke="black" stroke-width="0.3"/>
</svg>
