<svg width="16" height="16" viewBox="0 0 16 16" fill="none" xmlns="http://www.w3.org/2000/svg">
<path d="M5.53979 12.5405L5.5398 12.5405L10.0806 8.00028L5.5398 3.4601L5.53979 3.46009C5.41784 3.33814 5.34933 3.17274 5.34933 3.00028C5.34933 2.82781 5.41784 2.66241 5.53979 2.54046C5.66174 2.41851 5.82714 2.35 5.99961 2.35C6.17207 2.35 6.33747 2.41851 6.45942 2.54046L11.4594 7.5404C11.4594 7.54042 11.4594 7.54044 11.4594 7.54046C11.5198 7.60082 11.5678 7.67248 11.6005 7.75137C11.6332 7.83028 11.65 7.91486 11.65 8.00028C11.65 8.0857 11.6332 8.17028 11.6005 8.24919C11.5678 8.32807 11.5198 8.39974 11.4594 8.46009C11.4594 8.46011 11.4594 8.46013 11.4594 8.46015L6.45942 13.4601C6.39904 13.5205 6.32735 13.5684 6.24846 13.6011C6.16956 13.6337 6.085 13.6506 5.99961 13.6506C5.91421 13.6506 5.82965 13.6337 5.75076 13.6011C5.67186 13.5684 5.60017 13.5205 5.53979 13.4601C5.47941 13.3997 5.43151 13.328 5.39883 13.2491C5.36615 13.1702 5.34933 13.0857 5.34933 13.0003C5.34933 12.9149 5.36615 12.8303 5.39883 12.7514C5.43151 12.6725 5.47941 12.6008 5.53979 12.5405Z" fill="black" stroke="black" stroke-width="0.3"/>
</svg>
